PathFileType	4	(X/Y/Z)	4_coords_data.trc
DataRate	CameraRate	NumFrames	NumMarkers	Units	OrigDataRate	OrigDataStartFrame	OrigNumFrames
30.0	30.0	8	21	m	30.0	1	57
Frame#	Time	THUMB_TIP	THUMB_IP	THUMB_MCP	THUMB_CMC	INDEX_TIP	INDEX_DIP	INDEX_PIP	INDEX_MCP	MIDDLE_TIP	MIDDLE_DIP	MIDDLE_PIP	MIDDLE_MCP	RING_TIP	RING_DIP	RING_PIP	RING_MCP	PINKY_TIP	PINKY_DIP	PINKY_PIP	PINKY_MCP	WRIST
X1	Y1	Z1	X2	Y2	Z2	X3	Y3	Z3	X4	Y4	Z4	X5	Y5	Z5	X6	Y6	Z6	X7	Y7	Z7	X8	Y8	Z8	X9	Y9	Z9	X10	Y10	Z10	X11	Y11	Z11	X12	Y12	Z12	X13	Y13	Z13	X14	Y14	Z14	X15	Y15	Z15	X16	Y16	Z16	X17	Y17	Z17	X18	Y18	Z18	X19	Y19	Z19	X20	Y20	Z20	X21	Y21	Z21
0	-2.749317978547796e-18	0.47565748907631544	-0.027553808598853258	-0.17206234315578173	0.4811502678099663	-0.02787107896914731	-0.14975250852404842	0.4679514146396897	-0.02518934760919711	-0.12169152864268046	0.47342772742387873	-0.029324544537428165	-0.0776143220087015	0.5587819144590105	0.021154294744375357	-0.183943848794124	0.5460239622615657	0.02018491112282761	-0.17112608958582282	0.5320899365186593	0.011678172484968052	-0.15200834501845367	0.5052249232112904	0.0027929043008909638	-0.12018132562781764	0.5933995139522183	0.041755013132747876	-0.14115943757624205	0.5781209459106919	0.03564598057401214	-0.1335933897442	0.5545746800833719	0.023161183071475633	-0.12179878305682601	0.5157912262952429	0.011138317832595002	-0.10315897767394205	0.6039793993176527	0.039736409424456665	-0.09920371912028941	0.587021691660175	0.03460089712368364	-0.09587766073052284	0.5649213234292395	0.024098412959120408	-0.09124608114790134	0.5282696485791387	0.008276681809551434	-0.08483917954781017	0.5996068400650018	0.007997869630237076	-0.0420046073259045	0.5830826033358331	0.006470657875624175	-0.0462018951138653	0.5632720340994812	0.005540784239690177	-0.05309309969310305	0.5299016203689957	0.0029310498831168763	-0.06652769031002709	0.4622830810018609	-0.023011742144276925	-0.051989820119430985
1	0.03333333333333339	0.47489846084808607	-0.028454146873040265	-0.1723120719999674	0.4803361179636815	-0.028757998815022723	-0.1499885516886328	0.4671844935027417	-0.0262397541160706	-0.12189027384683948	0.47303402149372575	-0.029346665801021965	-0.07777655577564752	0.5585174022563506	0.02078933329467847	-0.18436768593824648	0.5458834818163871	0.019628761434018704	-0.17144340153744042	0.531503006624468	0.011640872512276523	-0.15243273619325776	0.5048497388647578	0.002775966292777543	-0.12042253704597533	0.5933497882038958	0.0419791246644281	-0.14141803809530623	0.5781136261050714	0.035821248598986166	-0.13380621000600984	0.5544829519587486	0.023497955773925994	-0.12201056490545942	0.5160312116279421	0.0109410601385872	-0.10303858666028343	0.604121897470009	0.03950406186305333	-0.09912527517608039	0.5872332604730897	0.03423985138232244	-0.09565223207228046	0.5650694738979735	0.023763897643154785	-0.09127034470408851	0.5284104013570387	0.00796362161768005	-0.08485282867705002	0.6001237649006013	0.007793154183264983	-0.04226614453511629	0.5835733671930866	0.0064366700994527015	-0.04641876860351668	0.5636490426720185	0.005497618132011883	-0.05297250744341658	0.530171314581838	0.0024855147395848043	-0.06605120791683017	0.4622830810018608	-0.023011742144276925	-0.051989820119430985
2	0.06666666666666676	0.47436443654990323	-0.02910536864778568	-0.1724806049719127	0.47973762321496927	-0.029407423113503417	-0.15014145485016245	0.4666032575365625	-0.027026759236269737	-0.12202311781310549	0.4727299354579838	-0.029355498539274327	-0.0778990791164289	0.5583050155135805	0.020556867081536923	-0.1846594873415085	0.5457666947159828	0.019243512131396412	-0.17165696411132464	0.5310613159048907	0.011639354358539133	-0.15273770272014509	0.504562371137547	0.002788281246291713	-0.12059582155275028	0.5933066219719331	0.042206026071060276	-0.1415608844011702	0.5781068453129786	0.03599384244417525	-0.13392049409021323	0.5544154791674811	0.023779613754254636	-0.12213315606713554	0.5162160479554364	0.010810972488664583	-0.10292988239307904	0.6042213221006235	0.039351323319442466	-0.09905359502959421	0.5873878406574091	0.033988615213877305	-0.09546538318029363	0.5651781988192719	0.023530931389825094	-0.09127627379310566	0.5285133804663761	0.007748612034355062	-0.08484740725917339	0.6005067020863365	0.007601196692693657	-0.04244781985123336	0.5839352363368936	0.006390585861366316	-0.04656132739712543	0.5639283640770739	0.005458523731905474	-0.05285960823923519	0.5303716455444858	0.002159919270017463	-0.06566387709492055	0.4622830810018609	-0.023011742144276925	-0.051989820119430985
3	0.10000000000000014	0.4740358244778018	-0.029528659497011667	-0.17258965509920143	0.47933573489998826	-0.02983974559283431	-0.1502331308846061	0.46619157521121135	-0.027573915296892126	-0.12210988286546859	0.4725097780170162	-0.029353375677665827	-0.07798728282809575	0.5581554439558005	0.02043428301151551	-0.1848389902413312	0.5456846979750886	0.01900558978970468	-0.17178374875132008	0.5307528712316335	0.011668707520351096	-0.1529364534103676	0.5043560610156067	0.002826208084320103	-0.12070828703151731	0.5932709925447159	0.042439084615315315	-0.1416084161598492	0.5781012948179667	0.03616915050540581	-0.1339554300017245	0.5543703243987156	0.02401654676142928	-0.1221840742937983	0.5163515840208597	0.010740348230732	-0.10283295407674847	0.604286269425485	0.0392656124269396	-0.09899137866383823	0.587494093659146	0.03383211640998929	-0.09531715030047233	0.5652537000951369	0.023385131238962242	-0.09126679550683708	0.5285840996164071	0.0076187592656502545	-0.0848260851788139	0.6007782856244368	0.007427922455106373	-0.042565055292171194	0.5841899216986733	0.006339581975784769	-0.04664447893620466	0.564125144595017	0.0054283879328326234	-0.05275892610636429	0.5305109207024689	0.0019442499544730651	-0.06536163159563946	0.4622830810018608	-0.023011742144276925	-0.051989820119430985
4	0.13333333333333353	0.47388950724362633	-0.029750048823611097	-0.17265488158259656	0.4791079641711784	-0.030079910415132582	-0.15027947323714447	0.4659299112261225	-0.027909287276664307	-0.12216457832771888	0.4723652256768207	-0.029342605997060733	-0.0780463017819788	0.5580706158363962	0.020400313113174584	-0.18492430494202566	0.5456413640101894	0.018891337763336513	-0.17183856107955003	0.5305628609827335	0.011723271660264323	-0.1530431518583335	0.5042222928219533	0.0028855482586046532	-0.12076769356502576	0.5932433276551328	0.04267681439154636	-0.14157895842528567	0.578097467413591	0.036347801132655455	-0.13392738938929927	0.5543450864047652	0.02421579205031621	-0.12217799357344494	0.5164441111149407	0.010720611601083618	-0.10274749955700874	0.6043244083913879	0.03923383081746801	-0.09893975596239507	0.5875604513206599	0.033754333895630206	-0.09520547466415769	0.5653019070452469	0.02331166546374963	-0.09124468411664305	0.528627778548047	0.007560778441083937	-0.08479187922496217	0.6009581201873996	0.007274548470269315	-0.04263142486290006	0.5843561558599856	0.006286922528595751	-0.046681039100158306	0.5642530004964079	0.0054083396803312755	-0.05267297164372042	0.530597817820158	0.0018251526914884186	-0.06513783831092718	0.4622830810018608	-0.023011742144276925	-0.051989820119430985
5	0.1666666666666669	0.4738999613173678	-0.029798655894955117	-0.17268713341573505	0.47902943801992637	-0.030155739562845896	-0.1502915767132988	0.465796371904986	-0.028063784405389258	-0.12219656497069914	0.47228595754179536	-0.029325438760913425	-0.07808099508262323	0.5580458894389982	0.020435139311850592	-0.1849326221833446	0.5456352486898256	0.01887739724132731	-0.17183493399661876	0.5304743602569997	0.011796873980182032	-0.15307264508306184	0.5041512114403409	0.002961723506059055	-0.12078227428191346	0.5932237645062176	0.042914298440626886	-0.1414893398042339	0.5780958696863626	0.036526948406419124	-0.13385071703177603	0.5543371690426933	0.024381938735665187	-0.12212755901775096	0.5165002546259057	0.010742570062675982	-0.10267290788700645	0.6043426512187998	0.03924250880350999	-0.09889863496911572	0.5875951462546162	0.03373855845173468	-0.09512668481039988	0.565328569255576	0.023295398166388703	-0.09121261646654244	0.5286494457124749	0.007561115787856454	-0.08474770439115087	0.6010635529206331	0.0071386281619366665	-0.04265882768365481	0.584450483637988	0.006232858274540565	-0.04668194959594135	0.5643243944865336	0.005396605700675461	-0.0526025269411346	0.5306412236236469	0.001786751947513765	-0.06498381958376154	0.462283081001861	-0.023011742144276925	-0.051989820119430985
6	0.20000000000000023	0.4740401343315974	-0.02970546481034675	-0.1726938501239943	0.4790737151307144	-0.030096791699121828	-0.1502771169185318	0.4657675135632351	-0.028070024402078952	-0.12221188550724205	0.47226025459032195	-0.029304052800514957	-0.07809599848377807	0.5580721031975103	0.020520185220339937	-0.18488062966879637	0.545661299803073	0.01894079892657541	-0.1717856879721072	0.5304689956027159	0.011883046659980079	-0.15304023895035307	0.5041320238757699	0.0030499402262612607	-0.12076058212155988	0.5932122938143818	0.043144448914498534	-0.1413553644010072	0.5780970977172651	0.03670142377116903	-0.13373839164615675	0.5543439035949275	0.024517910243174845	-0.12204406323022249	0.5165268795157365	0.010796639758301252	-0.10260833975321187	0.6043473589405605	0.039277950034049436	-0.09886707675968875	0.5876062689147808	0.033767636127181255	-0.09507598913256676	0.5653393367862558	0.0233210052504903	-0.09117321884598345	0.5286540265352155	0.007606047625217105	-0.08469641773580638	0.6011103798568264	0.0070151400341083026	-0.04265782788827127	0.584487972845989	0.006175562186041206	-0.046656664494472755	0.5643510029645519	0.005389403642588775	-0.05254703101436381	0.5306501430918648	0.0018114522816428114	-0.0648893873088574	0.4622830810018608	-0.023011742144276925	-0.051989820119430985
7	0.23333333333333361	0.4742821222419984	-0.029502483755406428	-0.17268040296422177	0.4792134075982234	-0.02993359911643212	-0.1502416738495645	0.4658189586155139	-0.02796157584172132	-0.12221454662158049	0.47227552693356156	-0.029280560340438466	-0.07809580904391933	0.5581373590219493	0.02063778752456813	-0.18478475589733745	0.5457122968170183	0.019058923729570187	-0.17170327974514266	0.5305275307321541	0.011975210750960197	-0.15296151562367777	0.5041533590136038	0.003145330047529593	-0.12071136264848065	0.5932088393958788	0.043359053681596205	-0.14119217100722664	0.578101841534443	0.036864712717960324	-0.1336025629104527	0.554362594359123	0.02462561573889932	-0.1219379926789263	0.5165310103603548	0.010873034921211389	-0.10255280003100276	0.604344549075458	0.03932635741618273	-0.09884364864595269	0.5876018339340912	0.033824176348350554	-0.09504792826744263	0.565339825050233	0.02337306371665082	-0.09112910392657836	0.5286464143272646	0.007681758825326623	-0.08464085344412542	0.6011134565479864	0.006897493723885484	-0.04263805099743345	0.5844828198384514	0.006111990732220907	-0.04661358966352036	0.5643440453549784	0.005381766385946007	-0.05250498624734723	0.5306336516420633	0.0018806554134934705	-0.06484334224313687	0.4622830810018609	-0.023011742144276925	-0.051989820119430985
